#!OML:ASF F:\VICON\USERDATA\INSTALL\rory3\rory3.ASF
:FULLY-SPECIFIED
:DEGREES
393
root -0.387818 15.9487 26.5969 1.13478 3.77921 -0.552736
lowerback 12.5563 0.965657 -3.94153
upperback -4.64104 0.790717 1.58237
thorax -12.2684 0.76318 3.78945
lowerneck -9.15952 -6.91046 -4.95814
upperneck 19.5008 -9.78003 5.13707
head 8.03545 -4.55129 1.5414
rclavicle -1.52816e-015 -1.19271e-015
rhumerus -29.212 0.430082 -82.8395
rradius 39.9336
rwrist -7.99364
rhand -11.0065 19.3647
rfingers 7.12502
rthumb 15.0142 -10.0709
lclavicle -1.52816e-015 -1.19271e-015
lhumerus -40.9977 7.42193 83.8471
lradius 25.5363
lwrist 2.94276
lhand -4.91106 18.718
lfingers 7.12502
lthumb 20.8789 47.6144
rfemur 4.7028 13.7248 30.533
rtibia 14.6737
rfoot -16.0249 -11.2172
rtoes -4.07106
lfemur -33.3578 -6.40519 -19.12
ltibia 40.3561
lfoot -7.14975 4.15127
ltoes 6.65036
394
root -0.374562 15.9529 26.7173 1.30873 3.79641 -0.718399
lowerback 12.5398 0.9423 -3.70819
upperback -4.73495 0.802649 1.60145
thorax -12.3617 0.755304 3.67565
lowerneck -7.85945 -6.63692 -5.2189
upperneck 18.1206 -9.46213 5.83698
head 7.37761 -4.40555 1.9022
rclavicle 1.54058e-015 -3.18055e-015
rhumerus -29.298 0.498089 -82.8572
rradius 39.9883
rwrist -7.95175
rhand -10.9988 19.1946
rfingers 7.12502
rthumb 15.0217 -10.2405
lclavicle 1.54058e-015 -3.18055e-015
lhumerus -40.8832 7.44662 83.904
lradius 25.4212
lwrist 2.77158
lhand -4.8335 18.7479
lfingers 7.12502
lthumb 20.9534 47.6362
rfemur 5.93959 13.5588 30.7193
rtibia 12.9211
rfoot -15.596 -11.2018
rtoes -3.57764
lfemur -33.5479 -7.89137 -18.4404
ltibia 38.1912
lfoot -7.40545 5.04797
ltoes 7.0294
395
root -0.361318 15.958 26.8442 1.45839 3.79418 -0.697801
lowerback 12.3698 0.891864 -3.69172
upperback -4.81169 0.738342 1.56092
thorax -12.3391 0.72241 3.63645
lowerneck -8.89963 -6.59469 -4.36271
upperneck 19.382 -9.33081 4.60295
head 7.86727 -4.35196 1.33146
rclavicle -1.87727e-014 1.78906e-015
rhumerus -29.4988 0.585779 -82.98
rradius 40.0853
rwrist -7.75016
rhand -11.0564 18.8734
rfingers 7.12502
rthumb 14.9662 -10.5659
lclavicle -1.87727e-014 1.78906e-015
lhumerus -40.8757 7.3403 83.9415
lradius 25.4493
lwrist 2.87709
lhand -4.77177 18.8773
lfingers 7.12502
lthumb 21.0127 47.759
rfemur 7.41711 13.495 30.7296
rtibia 10.8923
rfoot -15.1361 -11.1872
rtoes -3.16655
lfemur -33.6656 -9.45603 -17.903
ltibia 36.2071
lfoot -7.96532 6.05048
ltoes 8.49185
396
root -0.350265 15.9678 26.9682 1.61266 3.74334 -0.712639
lowerback 12.0957 0.849753 -3.77107
upperback -4.7746 0.684702 1.62284
thorax -12.1284 0.700957 3.76099
lowerneck -9.39305 -6.66793 -4.43011
upperneck 19.6924 -9.39258 4.4584
head 8.05876 -4.38515 1.2676
rclavicle 1.81391e-015 5.96354e-015
rhumerus -29.3389 0.865167 -82.9884
rradius 39.9145
rwrist -7.69696
rhand -11.1565 18.9854
rfingers 7.12502
rthumb 14.8697 -10.461
lclavicle 1.81391e-015 5.96354e-015
lhumerus -40.6823 7.49668 84.0017
lradius 25.5281
lwrist 2.80246
lhand -4.61196 19.1204
lfingers 7.12502
lthumb 21.1662 47.985
rfemur 9.10497 13.1818 30.7322
rtibia 8.43349
rfoot -14.1789 -11.1314
rtoes -4.1019
lfemur -33.8774 -10.9901 -17.2857
ltibia 34.445
lfoot -8.66435 7.24627
ltoes 8.03294
397
root -0.337208 15.9713 27.0912 1.73428 3.66268 -0.770014
lowerback 12.017 0.856901 -3.76595
upperback -4.75713 0.707251 1.70378
thorax -12.0646 0.713555 3.84193
lowerneck -9.3022 -6.89124 -5.10551
upperneck 19.4629 -9.68057 4.95058
head 8.0411 -4.52963 1.50995
rclavicle -5.71506e-016 6.75868e-015
rhumerus -29.175 0.907815 -82.8825
rradius 39.5803
rwrist -7.52517
rhand -11.3027 19.0918
rfingers 7.12502
rthumb 14.7289 -10.3649
lclavicle -5.71506e-016 6.75868e-015
lhumerus -40.4937 7.65385 84.1034
lradius 25.6007
lwrist 2.60794
lhand -4.42264 19.3889
lfingers 7.12502
lthumb 21.3481 48.233
rfemur 11.341 12.8914 30.7812
rtibia 5.09161
rfoot -12.74 -11.1865
rtoes -4.78593
lfemur -34.0347 -12.5596 -16.5612
ltibia 32.8461
lfoot -9.1417 8.47497
ltoes 7.23657
398
root -0.323029 15.969 27.2176 1.77167 3.50633 -0.822164
lowerback 12.0397 0.915148 -3.72336
upperback -4.77489 0.792956 1.71025
thorax -12.1064 0.752496 3.80583
lowerneck -9.32575 -6.8299 -4.95336
upperneck 19.4174 -9.58857 4.81355
head 8.01012 -4.48791 1.45075
rclavicle 1.11444e-014 6.55989e-015
rhumerus -29.2187 0.755677 -82.8296
rradius 39.2687
rwrist -7.32558
rhand -11.2644 18.9894
rfingers 7.12502
rthumb 14.7658 -10.4646
lclavicle 1.11444e-014 6.55989e-015
lhumerus -40.4272 7.64311 84.1801
lradius 25.7062
lwrist 2.63597
lhand -4.51885 19.2757
lfingers 7.12502
lthumb 21.2556 48.1302
rfemur 14.6454 12.6604 30.8153
rtibia 0
rfoot -10.6342 -11.1282
rtoes -4.12679
lfemur -34.1032 -14.3002 -15.763
ltibia 31.4249
lfoot -9.48839 9.93716
ltoes 8.95891
399
root -0.306722 15.9723 27.3504 1.82623 3.34503 -0.751682
lowerback 11.8344 0.953377 -3.84254
upperback -4.70697 0.83137 1.70655
thorax -11.9116 0.773937 3.85992
lowerneck -9.41536 -6.86509 -4.97865
upperneck 19.4105 -9.63007 4.81824
head 8.02782 -4.50716 1.44857
rclavicle 3.86388e-015 7.7526e-015
rhumerus -29.112 0.833901 -82.8322
rradius 38.8995
rwrist -7.28771
rhand -11.3817 18.8096
rfingers 7.12502
rthumb 14.6528 -10.6527
lclavicle 3.86388e-015 7.7526e-015
lhumerus -40.2439 7.90353 84.1244
lradius 25.6636
lwrist 2.48081
lhand -4.41955 19.085
lfingers 7.12502
lthumb 21.351 47.9287
rfemur 15.0938 12.4401 30.7022
rtibia -2.38542e-014
rfoot -11.0024 -10.64
rtoes -4.24491
lfemur -34.3312 -16.0675 -15.0959
ltibia 30.2173
lfoot -10.2753 11.5216
ltoes 15.2771
400
root -0.293181 15.9733 27.4881 1.79505 3.18677 -0.766932
lowerback 11.75 0.9736 -3.9285
upperback -4.68276 0.850646 1.7357
thorax -11.838 0.788953 3.93638
lowerneck -9.33703 -6.88933 -5.10756
upperneck 19.3117 -9.66469 4.93955
head 7.99571 -4.52472 1.50867
rclavicle -4.02539e-015 1.5704e-014
rhumerus -29.1172 0.929917 -82.8478
rradius 38.3762
rwrist -7.15506
rhand -11.4357 19.0985
rfingers 7.12502
rthumb 14.6007 -10.3675
lclavicle -4.02539e-015 1.5704e-014
lhumerus -40.2116 7.99993 84.1118
lradius 25.7237
lwrist 2.32881
lhand -4.24291 19.3274
lfingers 7.12502
lthumb 21.5207 48.1518
rfemur 15.6457 12.1989 30.7183
rtibia -1.59028e-015
rfoot -11.3431 -10.2557
rtoes -5.0009
lfemur -34.6026 -17.9862 -14.2449
ltibia 29.2121
lfoot -9.64987 13.686
ltoes 8.79025
401
root -0.283663 15.967 27.6176 1.74657 3.00629 -1.08061
lowerback 11.9235 0.998107 -3.75792
upperback -4.82377 0.915575 1.82325
thorax -12.1083 0.820171 3.923
lowerneck -9.32319 -6.91219 -5.07759
upperneck 19.5332 -9.70446 4.88029
head 8.06452 -4.54455 1.47834
rclavicle -4.34841e-016 -1.55052e-014
rhumerus -29.4875 0.599806 -82.8295
rradius 37.9097
rwrist -6.6351
rhand -11.3906 19.5718
rfingers 7.12502
rthumb 14.6442 -9.89108
lclavicle -4.34841e-016 -1.55052e-014
lhumerus -40.4341 7.74045 84.1707
lradius 25.7737
lwrist 2.51719
lhand -4.36896 19.2646
lfingers 7.12502
lthumb 21.3996 48.1028
rfemur 16.1459 11.9803 31.071
rtibia -3.18055e-015
rfoot -11.5555 -9.91667
rtoes -5.43672
lfemur -34.8957 -19.7281 -13.0641
ltibia 28.4238
lfoot -9.87351 15.4456
ltoes 8.93473
402
root -0.267353 15.9556 27.7451 1.77538 2.84114 -1.29849
lowerback 11.8234 0.989711 -3.61805
upperback -4.79468 0.941959 1.9187
thorax -12.0156 0.823893 3.94242
lowerneck -10.264 -7.1207 -5.1101
upperneck 20.2901 -9.94755 4.64955
head 8.49252 -4.65339 1.33711
rclavicle 6.28657e-015 1.51076e-014
rhumerus -29.5599 0.317194 -82.7462
rradius 37.5053
rwrist -6.08122
rhand -11.2921 19.3972
rfingers 7.12502
rthumb 14.7391 -10.0588
lclavicle 6.28657e-015 1.51076e-014
lhumerus -40.3193 7.64169 84.3132
lradius 25.7278
lwrist 2.82407
lhand -4.68186 18.7178
lfingers 7.12502
lthumb 21.0991 47.5899
rfemur 16.5802 11.7644 31.2749
rtibia 1.90833e-014
rfoot -11.6554 -9.56059
rtoes -5.78163
lfemur -35.2884 -21.3015 -12.0765
ltibia 27.8918
lfoot -10.66 16.8931
ltoes 11.2748
403
root -0.249702 15.9441 27.8759 1.77974 2.61176 -1.4622
lowerback 11.5172 1.03624 -3.47739
upperback -4.60087 1.04227 1.96283
thorax -11.6173 0.850296 3.88686
lowerneck -8.91307 -6.62212 -4.98963
upperneck 18.8111 -9.32774 5.07319
head 7.7355 -4.36019 1.58974
rclavicle 1.10947e-014 -1.72943e-014
rhumerus -29.3964 -0.0064363 -82.6694
rradius 37.0623
rwrist -5.701
rhand -11.1472 19.3439
rfingers 7.12502
rthumb 14.8787 -10.1018
lclavicle 1.10947e-014 -1.72943e-014
lhumerus -39.8453 7.45688 84.516
lradius 25.605
lwrist 3.02164
lhand -4.74523 18.5382
lfingers 7.12502
lthumb 21.0382 47.417
rfemur 17.0726 11.6063 31.42
rtibia -4.13472e-014
rfoot -11.7849 -9.24858
rtoes -6.58232
lfemur -35.6502 -22.6908 -11.2268
ltibia 27.5103
lfoot -11.4703 18.1835
ltoes 11.5845
